<svg width="24" height="24" viewBox="0 0 24 24" fill="none" xmlns="http://www.w3.org/2000/svg">
<path d="M18.3438 11.8281C17.7188 11.9844 17.1198 11.9583 16.5469 11.75C15.974 11.5417 15.4531 11.2292 14.9844 10.8125C14.5677 10.3958 14.2031 9.90104 13.8906 9.32812C13.6302 8.75521 13.5 8.13021 13.5 7.45312C13.5 6.20312 13.9688 5.16146 14.9062 4.32812C15.8438 3.44271 16.9896 3 18.3438 3C20.1667 3 21.5208 3.67708 22.4062 5.03125C23.2917 6.33333 23.7344 8 23.7344 10.0312C23.7344 12.8438 23.0573 15.3177 21.7031 17.4531C20.401 19.5885 18.3438 21.1771 15.5312 22.2188L14.3594 20.6562C16.4427 19.7708 17.9792 18.625 18.9688 17.2188C19.9583 15.8125 20.4531 14.25 20.4531 12.5312C20.4531 11.9583 20.3229 11.6198 20.0625 11.5156C19.8542 11.4115 19.5938 11.4115 19.2812 11.5156L18.3438 11.8281ZM5.84375 11.8281C5.21875 11.9844 4.61979 11.9583 4.04688 11.75C3.47396 11.5417 2.95312 11.2292 2.48438 10.8125C2.06771 10.3958 1.70312 9.90104 1.39062 9.32812C1.13021 8.75521 1 8.13021 1 7.45312C1 6.20312 1.46875 5.16146 2.40625 4.32812C3.34375 3.44271 4.48958 3 5.84375 3C7.66667 3 9.02083 3.67708 9.90625 5.03125C10.7917 6.33333 11.2344 8 11.2344 10.0312C11.2344 12.8438 10.5573 15.3177 9.20312 17.4531C7.90104 19.5885 5.84375 21.1771 3.03125 22.2188L1.9375 20.6562C3.96875 19.7708 5.47917 18.625 6.46875 17.2188C7.45833 15.8125 7.95312 14.25 7.95312 12.5312C7.95312 11.9583 7.82292 11.6198 7.5625 11.5156C7.35417 11.4115 7.09375 11.4115 6.78125 11.5156L5.84375 11.8281Z" fill="#C4C4C4"/>
</svg>
