<svg width="24" height="24" viewBox="0 0 24 24" fill="none" xmlns="http://www.w3.org/2000/svg">
<path d="M5.39062 12.3906C6.01562 12.2344 6.61458 12.2604 7.1875 12.4688C7.76042 12.625 8.25521 12.9115 8.67188 13.3281C9.14062 13.7448 9.50521 14.2396 9.76562 14.8125C10.0781 15.3854 10.2344 16.0104 10.2344 16.6875C10.2344 17.9896 9.76562 19.0833 8.82812 19.9688C7.89062 20.8021 6.74479 21.2188 5.39062 21.2188C3.56771 21.2188 2.21354 20.5677 1.32812 19.2656C0.442708 17.9115 0 16.1927 0 14.1094C0 11.2969 0.651042 8.84896 1.95312 6.76562C3.30729 4.63021 5.39062 3.04167 8.20312 2L9.29688 3.48438C7.26562 4.42188 5.75521 5.59375 4.76562 7C3.77604 8.40625 3.28125 9.96875 3.28125 11.6875C3.28125 12.2604 3.38542 12.599 3.59375 12.7031C3.85417 12.8073 4.14062 12.8073 4.45312 12.7031L5.39062 12.3906ZM17.8906 12.3906C19.0885 12.1302 20.1823 12.4427 21.1719 13.3281C22.1615 14.2135 22.6562 15.3333 22.6562 16.6875C22.6562 17.9896 22.1875 19.0833 21.25 19.9688C20.3646 20.8021 19.2448 21.2188 17.8906 21.2188C16.0677 21.2188 14.6875 20.5677 13.75 19.2656C12.8646 17.9115 12.4219 16.1927 12.4219 14.1094C12.4219 11.2969 13.099 8.84896 14.4531 6.76562C15.8073 4.63021 17.8906 3.04167 20.7031 2L21.7969 3.48438C19.7656 4.42188 18.2292 5.59375 17.1875 7C16.1979 8.40625 15.7031 9.96875 15.7031 11.6875C15.7031 12.2604 15.8073 12.599 16.0156 12.7031C16.276 12.8073 16.5885 12.8073 16.9531 12.7031L17.8906 12.3906Z" fill="#C4C4C4"/>
</svg>
