<svg xmlns="http://www.w3.org/2000/svg" width="32" height="32">
    <path fill="#CCC" fill-rule="evenodd" d="M4.681 4.681c-6.238 6.238-6.238 16.364 0 22.602 6.238 6.238 16.364 6.238 22.602 0 6.239-6.238 6.239-16.364 0-22.602-6.238-6.238-16.364-6.238-22.602 0zm16.952 7.911l-3.391 3.39 3.391 3.39a1.605 1.605 0 0 1 0 2.261 1.605 1.605 0 0 1-2.261 0l-3.39-3.391-3.39 3.391a1.605 1.605 0 0 1-2.261 0 1.605 1.605 0 0 1 0-2.261l3.391-3.39-3.391-3.39a1.604 1.604 0 0 1 0-2.26 1.603 1.603 0 0 1 2.261 0l3.39 3.39 3.39-3.39a1.603 1.603 0 0 1 2.261 0 1.604 1.604 0 0 1 0 2.26z"/>
</svg>
