<?xml version="1.0" encoding="utf-8"?>
<!-- Generator: Adobe Illustrator 23.0.4, SVG Export Plug-In . SVG Version: 6.00 Build 0)  -->
<svg version="1.1" id="Layer_1" xmlns="http://www.w3.org/2000/svg" xmlns:xlink="http://www.w3.org/1999/xlink" x="0px" y="0px"
	 viewBox="0 0 24 24" style="enable-background:new 0 0 24 24;" xml:space="preserve">
<style type="text/css">
	.st0{fill:none;}
</style>
<path class="st0" d="M0,0h24v24H0V0z"/>
<path d="M19,11.1c0,0,0-0.1,0-0.1l0,0c0-0.4-0.2-0.7-0.5-1l-5.6-4.6c-0.5-0.4-1.2-0.4-1.7,0L5.5,10C5.2,10.3,5,10.6,5,11l0,0
	c0,0,0,0.1,0,0.1c0,0,0,0,0,0.1c0,2.6,0,5.2,0,7.8c0,0.5,0.5,1,1,1h3c0.5,0,1-0.5,1-1v-3h4v3c0,0.5,0.5,1,1,1h3c0.5,0,1-0.5,1-1
	C19,16.4,19,13.8,19,11.1C19,11.2,19,11.1,19,11.1z"/>
</svg>
