<svg width="19" height="18" viewBox="0 0 19 18" fill="none" xmlns="http://www.w3.org/2000/svg">
<path d="M13.1348 8.18359C13.1348 9.4987 12.9167 10.6478 12.4805 11.6309C12.0443 12.6074 11.4421 13.3919 10.6738 13.9844L12.9688 15.8008L10.8496 17.5977L7.79297 15.1367C7.50651 15.1758 7.22005 15.1953 6.93359 15.1953C5.72266 15.1953 4.64844 14.9154 3.71094 14.3555C2.77344 13.7956 2.04102 12.9948 1.51367 11.9531C0.992839 10.9115 0.722656 9.71354 0.703125 8.35938V7.60742C0.703125 6.20768 0.957031 4.97721 1.46484 3.91602C1.97917 2.85482 2.70833 2.03451 3.65234 1.45508C4.60286 0.875651 5.6901 0.585938 6.91406 0.585938C8.11849 0.585938 9.19271 0.872396 10.1367 1.44531C11.0807 2.01823 11.8132 2.83529 12.334 3.89648C12.8613 4.95117 13.1283 6.16211 13.1348 7.5293V8.18359ZM9.64844 7.58789C9.64844 6.17513 9.41081 5.10417 8.93555 4.375C8.4668 3.63932 7.79297 3.27148 6.91406 3.27148C6.00911 3.27148 5.32878 3.63281 4.87305 4.35547C4.41732 5.07812 4.1862 6.13607 4.17969 7.5293V8.18359C4.17969 9.58333 4.41081 10.6576 4.87305 11.4062C5.33529 12.1484 6.02214 12.5195 6.93359 12.5195C7.80599 12.5195 8.47331 12.1517 8.93555 11.416C9.4043 10.6803 9.64193 9.6224 9.64844 8.24219V7.58789ZM16.7676 11.8066C17.2884 11.8066 17.7214 11.9629 18.0664 12.2754C18.4115 12.5814 18.584 12.9753 18.584 13.457C18.584 13.9388 18.4115 14.3359 18.0664 14.6484C17.7214 14.9544 17.2884 15.1074 16.7676 15.1074C16.2402 15.1074 15.804 14.9512 15.459 14.6387C15.1204 14.3262 14.9512 13.9323 14.9512 13.457C14.9512 12.9818 15.1204 12.5879 15.459 12.2754C15.804 11.9629 16.2402 11.8066 16.7676 11.8066Z" fill="white"/>
</svg>
